<?xml version="1.0" standalone="no"?><!DOCTYPE svg PUBLIC "-//W3C//DTD SVG 1.1//EN" "http://www.w3.org/Graphics/SVG/1.1/DTD/svg11.dtd"><svg t="1596081242226" class="icon" viewBox="0 0 1024 1024" version="1.1" xmlns="http://www.w3.org/2000/svg" p-id="2672" xmlns:xlink="http://www.w3.org/1999/xlink" width="200" height="200"><defs><style type="text/css"></style></defs><path d="M554.314 508.648l260.714-260.714c11.653-11.653 11.653-30.528 0-42.182-11.704-11.704-30.728-11.704-42.432 0l-260.465 260.664-260.714-260.664c-11.653-11.704-30.528-11.704-42.182 0-11.704 11.653-11.704 30.528 0 42.381l260.664 260.515-260.664 260.465c-11.704 11.704-11.704 30.728 0 42.431 5.827 5.828 13.398 8.766 21.216 8.766 7.571 0 15.139-2.937 20.967-8.766l260.714-260.714 260.465 260.714c6.026 5.828 13.646 8.766 21.216 8.766s15.389-2.937 21.216-8.766c11.653-11.704 11.653-30.728 0-42.431l-260.714-260.465z" p-id="2673"></path></svg>